Coordinates
version=1
nRows=20
nColumns=38
inDegrees=no

Units are S.I. units (second, meters, Newtons, ...)
If the header above contains a line with 'inDegrees', this indicates whether rotational values are in degrees (yes) or radians (no).

endheader
time	pelvis_tilt	pelvis_list	pelvis_rotation	pelvis_tx	pelvis_ty	pelvis_tz	hip_flexion_r	hip_adduction_r	hip_rotation_r	knee_angle_r	ankle_angle_r	subtalar_angle_r	mtp_angle_r	hip_flexion_l	hip_adduction_l	hip_rotation_l	knee_angle_l	ankle_angle_l	subtalar_angle_l	mtp_angle_l	lumbar_extension	lumbar_bending	lumbar_rotation	arm_flex_r	arm_add_r	arm_rot_r	elbow_flex_r	pro_sup_r	wrist_flex_r	wrist_dev_r	arm_flex_l	arm_add_l	arm_rot_l	elbow_flex_l	pro_sup_l	wrist_flex_l	wrist_dev_l
0	3.04771	1.3494	-1.3248	0.686184	-0.19604	0.946853	-0.13884	0.0175941	-0.192089	0.526161	-0.105153	0	0	-0.162695	-0.092129	0.0604823	0.352335	-0.156517	0	0	-0.306738	0.073881	-0.103238	0.0912036	-0.308512	0.447073	0.889747	1.5708	0	0	0.0635278	-0.306399	0.444781	0.881695	1.5708	0	0
0.01	3.02957	1.36087	-1.30509	0.685832	-0.194748	0.946609	-0.132624	0.0211733	-0.182509	0.513165	-0.107079	0	0	-0.149837	-0.0938607	0.0604127	0.353807	-0.159378	0	0	-0.284625	0.0783866	-0.102703	0.0951949	-0.312112	0.460377	0.869704	1.5708	0	0	0.0684353	-0.289957	0.451947	0.8508	1.5708	0	0
0.02	3.03745	1.35532	-1.31152	0.685499	-0.194203	0.946951	-0.141116	0.0210588	-0.185264	0.511577	-0.106065	0	0	-0.158472	-0.0942964	0.0588186	0.349877	-0.161118	0	0	-0.289861	0.0786337	-0.10382	0.0956455	-0.312934	0.455729	0.865566	1.5708	0	0	0.069807	-0.288378	0.461201	0.850121	1.5708	0	0
0.03	3.04572	1.35059	-1.31869	0.685183	-0.193626	0.9473	-0.148549	0.0204981	-0.18756	0.511161	-0.104037	0	0	-0.166666	-0.0942041	0.0576837	0.34547	-0.162476	0	0	-0.294008	0.0783973	-0.104373	0.0957687	-0.313496	0.450888	0.860314	1.5708	0	0	0.0719268	-0.286616	0.471493	0.847805	1.5708	0	0
0.04	3.05176	1.34789	-1.32414	0.684897	-0.192973	0.947513	-0.153333	0.0196324	-0.188514	0.51209	-0.101447	0	0	-0.172717	-0.0937611	0.0576876	0.341188	-0.163153	0	0	-0.294992	0.0778966	-0.104599	0.0955389	-0.313519	0.446129	0.853267	1.5708	0	0	0.0735638	-0.284893	0.482675	0.844234	1.5708	0	0
0.05	3.05459	1.34723	-1.32707	0.684655	-0.192261	0.947539	-0.155299	0.0186201	-0.187611	0.513753	-0.0994493	0	0	-0.176057	-0.0932066	0.0584518	0.338133	-0.163195	0	0	-0.293893	0.0772462	-0.105032	0.0953675	-0.313465	0.442355	0.846223	1.5708	0	0	0.0736344	-0.283003	0.490836	0.841218	1.5708	0	0
0.06	3.05524	1.34748	-1.32857	0.684453	-0.191517	0.947493	-0.155639	0.0175818	-0.185686	0.516579	-0.0977802	0	0	-0.178334	-0.092593	0.0595052	0.335405	-0.162995	0	0	-0.291395	0.0769588	-0.104965	0.0951472	-0.313577	0.439575	0.838969	1.5708	0	0	0.0734301	-0.280735	0.4976	0.837255	1.5708	0	0
0.07	3.0544	1.34803	-1.32926	0.6843	-0.190751	0.947434	-0.155476	0.0167237	-0.182653	0.519426	-0.0966297	0	0	-0.180198	-0.092111	0.0601456	0.333038	-0.162656	0	0	-0.288439	0.0768771	-0.104455	0.0949194	-0.313799	0.437459	0.831806	1.5708	0	0	0.0730172	-0.278447	0.503279	0.833042	1.5708	0	0
0.08	3.05242	1.34855	-1.32926	0.684213	-0.190025	0.947378	-0.155304	0.0161391	-0.178481	0.521616	-0.0961512	0	0	-0.181727	-0.0918959	0.0600654	0.331516	-0.162147	0	0	-0.286105	0.0767992	-0.103851	0.0948504	-0.313982	0.435719	0.825592	1.5708	0	0	0.0719367	-0.276482	0.507367	0.829949	1.5708	0	0
0.09	3.0287	1.37301	-1.31652	0.685136	-0.189549	0.945272	-0.158421	0.0165525	-0.00492197	0.478299	-0.0783874	0	0	-0.155198	-0.0884649	0.0586855	0.335689	-0.158382	0	0	-0.258796	0.0727032	-0.0942359	0.0922094	-0.313125	0.432369	0.816479	1.5708	0	0	0.0713667	-0.272783	0.514002	0.821011	1.5708	0	0
0.1	3.03083	1.37285	-1.32127	0.685111	-0.188736	0.945293	-0.160503	0.0154989	-0.00749319	0.473324	-0.0805462	0	0	-0.159094	-0.0874239	0.0578859	0.331299	-0.159088	0	0	-0.256927	0.0715497	-0.0927443	0.0914648	-0.313163	0.430792	0.811271	1.5708	0	0	0.0706631	-0.271009	0.517427	0.817493	1.5708	0	0
0.11	3.03332	1.37301	-1.32694	0.685103	-0.18793	0.945293	-0.16055	0.013779	-0.0122847	0.472548	-0.0824956	0	0	-0.163244	-0.0860051	0.0569523	0.325904	-0.160103	0	0	-0.254699	0.0705261	-0.0914573	0.0908827	-0.31317	0.429968	0.807026	1.5708	0	0	0.0695948	-0.269424	0.520033	0.813522	1.5708	0	0
0.12	3.03514	1.37253	-1.3322	0.685097	-0.187165	0.945325	-0.161872	0.0125579	-0.0162492	0.470062	-0.0846063	0	0	-0.168191	-0.0847992	0.0562282	0.320663	-0.16128	0	0	-0.253686	0.0696702	-0.0899695	0.0903754	-0.313212	0.429024	0.804033	1.5708	0	0	0.0684411	-0.268062	0.521387	0.810317	1.5708	0	0
0.13	3.03824	1.37109	-1.33885	0.685079	-0.186433	0.945439	-0.164692	0.011311	-0.020918	0.46631	-0.087493	0	0	-0.174816	-0.0834076	0.0561063	0.313988	-0.163031	0	0	-0.253992	0.0686814	-0.088235	0.0898354	-0.313312	0.427721	0.802049	1.5708	0	0	0.0675484	-0.266898	0.522192	0.807487	1.5708	0	0
0.14	3.04234	1.36882	-1.34646	0.685049	-0.185775	0.945622	-0.168335	0.010058	-0.026173	0.462621	-0.0905198	0	0	-0.182588	-0.0819968	0.0559405	0.306572	-0.164647	0	0	-0.255686	0.06751	-0.0865013	0.08962	-0.313337	0.427232	0.801029	1.5708	0	0	0.0669013	-0.265987	0.522025	0.805215	1.5708	0	0
0.15	3.04593	1.36571	-1.35323	0.685014	-0.185196	0.945869	-0.173147	0.00934113	-0.0314816	0.45804	-0.0937851	0	0	-0.191173	-0.08097	0.0558152	0.298996	-0.166208	0	0	-0.258737	0.0665175	-0.0850048	0.0896629	-0.313307	0.42734	0.801135	1.5708	0	0	0.0666138	-0.265271	0.520919	0.803326	1.5708	0	0
0.16	3.04958	1.36208	-1.35954	0.684968	-0.184643	0.946152	-0.178598	0.00891763	-0.0376734	0.453192	-0.0973132	0	0	-0.20024	-0.0801961	0.0557836	0.291398	-0.167988	0	0	-0.262515	0.0655658	-0.0837854	0.0896834	-0.313119	0.427788	0.802098	1.5708	0	0	0.0667093	-0.264837	0.51971	0.801515	1.5708	0	0
0.17	3.05304	1.3586	-1.36514	0.684891	-0.184087	0.946418	-0.184043	0.00873855	-0.044518	0.44779	-0.101076	0	0	-0.2091	-0.0794936	0.056226	0.283609	-0.170146	0	0	-0.265718	0.0648836	-0.0828802	0.0894249	-0.312951	0.428595	0.803839	1.5708	0	0	0.0669382	-0.264561	0.518988	0.799619	1.5708	0	0
0.18	3.05723	1.35509	-1.37083	0.684772	-0.183539	0.946667	-0.189587	0.00865163	-0.0524511	0.442155	-0.104934	0	0	-0.217796	-0.0788076	0.0564111	0.276037	-0.172203	0	0	-0.26892	0.063924	-0.0825949	0.0890766	-0.312619	0.429388	0.806313	1.5708	0	0	0.0673771	-0.264473	0.51819	0.797859	1.5708	0	0
0.19	3.06235	1.35168	-1.37689	0.684604	-0.183027	0.946905	-0.194822	0.00847538	-0.0617114	0.436675	-0.108832	0	0	-0.22606	-0.0780256	0.0562926	0.268975	-0.17407	0	0	-0.272247	0.0626653	-0.0828218	0.0889435	-0.312242	0.430535	0.809186	1.5708	0	0	0.0680725	-0.264713	0.517043	0.796383	1.5708	0	0
